<?xml version="1.0" standalone="no"?>
<!DOCTYPE svg PUBLIC "-//W3C//DTD SVG 20010904//EN"
 "http://www.w3.org/TR/2001/REC-SVG-20010904/DTD/svg10.dtd">
<svg version="1.0" xmlns="http://www.w3.org/2000/svg"
 width="260.000000pt" height="260.000000pt" viewBox="0 0 260.000000 260.000000"
 preserveAspectRatio="xMidYMid meet">
<metadata>
Created by potrace 1.14, written by Peter Selinger 2001-2017
</metadata>
<g transform="translate(0.000000,260.000000) scale(0.100000,-0.100000)"
fill="#000000" stroke="none">
<path d="M0 1300 l0 -1300 1300 0 1300 0 0 1300 0 1300 -1300 0 -1300 0 0
-1300z m1525 1189 c213 -81 245 -99 245 -129 0 -31 -33 -48 -258 -129 l-223
-80 -177 63 c-221 79 -252 92 -252 106 0 26 40 17 228 -50 l200 -72 216 77
c119 43 216 81 216 85 0 4 -97 45 -215 90 l-216 82 -140 -53 c-77 -29 -142
-56 -145 -60 -8 -14 98 -39 162 -39 40 0 84 8 120 21 42 16 59 18 67 10 18
-18 -26 -47 -100 -67 -78 -21 -141 -15 -266 27 -151 51 -254 50 -322 -5 -23
-19 -27 -26 -18 -38 10 -11 4 -27 -27 -76 -22 -35 -47 -65 -55 -68 -27 -11
-65 6 -77 32 -11 22 -8 33 16 78 44 82 53 91 71 76 12 -10 21 -7 49 18 57 50
113 66 216 60 l90 -6 163 64 c89 34 176 63 192 63 17 1 125 -35 240 -80z
m-323 -361 l88 -30 100 36 c92 32 101 34 107 18 58 -161 144 -311 260 -454 35
-44 52 -72 47 -80 -5 -7 -27 -38 -49 -68 -23 -30 -63 -90 -89 -133 -58 -97
-232 -470 -298 -642 -27 -71 -52 -132 -54 -134 -2 -2 -4 204 -4 459 0 457 0
462 22 492 26 37 17 75 -23 97 -24 13 -29 13 -53 -2 -37 -25 -44 -62 -17 -98
21 -28 21 -32 19 -495 l-3 -467 -52 139 c-44 118 -101 247 -250 562 -21 45
-119 197 -179 280 -16 22 -16 24 5 50 129 160 206 280 253 397 16 39 33 81 39
93 7 17 14 22 27 17 9 -3 56 -20 104 -37z m-613 -624 c95 -23 219 -85 266
-133 l39 -41 -68 34 c-88 45 -245 73 -261 47 -6 -12 -59 -510 -54 -516 2 -2
36 -6 74 -10 215 -21 445 -110 530 -206 17 -18 10 -16 -36 10 -98 55 -218 96
-340 115 -51 9 -240 9 -285 0 l-37 -7 7 74 c4 41 9 97 12 124 18 186 44 484
44 503 0 27 18 28 109 6z m1531 9 c0 -5 14 -165 30 -356 17 -192 30 -351 30
-353 0 -2 -24 -2 -52 1 -230 25 -457 -19 -616 -119 -56 -35 -53 -20 6 26 121
97 275 150 502 173 36 4 67 9 69 11 5 5 -48 504 -54 515 -18 28 -190 -5 -275
-53 l-55 -30 40 42 c22 23 70 57 107 76 96 49 268 91 268 67z m-1689 -179 c5
-3 9 -21 9 -40 0 -32 -2 -34 -35 -34 -20 0 -37 -6 -40 -12 -3 -10 -55 -489
-55 -510 0 -2 78 -5 173 -5 192 0 345 -19 465 -59 78 -26 154 -62 187 -89 19
-15 18 -15 -10 -2 -57 27 -210 67 -310 81 -165 23 -364 19 -547 -11 l-41 -6 7
94 c4 52 9 108 11 124 2 17 9 89 15 160 6 72 13 146 15 165 2 19 7 67 10 106
l7 71 65 -13 c36 -8 69 -17 74 -20z m1893 -129 c4 -44 16 -180 26 -303 26
-290 29 -261 -22 -251 -89 17 -188 24 -353 23 -187 -1 -327 -22 -452 -69 -36
-14 -68 -24 -70 -21 -2 2 33 22 79 44 151 74 322 105 581 105 l178 0 -5 41
c-7 49 -9 75 -32 309 l-18 177 -38 0 c-37 0 -38 1 -38 35 0 40 4 43 89 60 l56
11 6 -41 c4 -22 9 -76 13 -120z"/>
</g>
</svg>
